<svg id="Layer_1" data-name="Layer 1" xmlns="http://www.w3.org/2000/svg" viewBox="0 0 370.23 108.21"><defs> <style>.cls-1{fill:#cb4900;}.cls-2{fill:none;}.cls-3{fill:#fff;}</style></defs><path id="Path_3367" data-name="Path 3367" class="cls-1" d="M-.18-.21,0,108l312.43-.22L357,31.28l5.87-4.63,7.2-26.86Z" transform="translate(0.18 0.21)"/><g id="Group_6855" data-name="Group 6855"><g id="Group_3" data-name="Group 3"><path id="Path_25" data-name="Path 25" class="cls-2" d="M176.62,50.24h11.83l2.05-7.65H178.67Z" transform="translate(0.18 0.21)"/><path id="Path_26" data-name="Path 26" class="cls-2" d="M279.87,27.42l-4.13,7.07-.86-9.24-5.14,9.1-.35-6.93H217.07l-9.36,7.39-5.49-7.39H58.6l16.1,11L66.85,68.19l7.83,10.69h29.17L115.12,70l5.3-19.87h4.67l3.29-2.6L123.11,67l-2.5,2L118,78.71h27.24l2.1-7.84-1.43-2,5.59-20.71H154l1.44,2h2.7L153.67,67l-2.53,2-2.61,9.73h25.41l2.45-8.9,6.52,8.9h51.54l11.32-9,2.52-9.4.86,18.4h25.29l22.95-39.4,2.77-2.19,2.6-9.72Zm-9.87,12,3-5.25.48,5.25,5.14,0-4.87,3,.53,6.3-4.45-3.88-4.38,2.7,2.45-4.39-4.26-3.77Zm-150.88-3.2L110.9,67l-8.71,6.79H77.11l-5-6.79,8.22-30.77-5.9-4.1h22.5l-.56,2.12-2.5,2-7.31,27.4H98.27l7.31-27.4-1.45-2,.56-2.12h17.5l-.57,2.12Zm38.94,8.35-1.45-2H148l-7.27,27.18,1.42,2-.55,2H124.27l.56-2,2.5-2,7.27-27.18h-8.54l-2.49,2h-2.1l3.26-12.39h38.63l-3.2,12.39Zm42.27,29.25-15,0-9.85-13.32h-1.63l-3.61,13.36H154.8l.58-2.07,2.53-2.05,8.94-33.41-1.57-2,.53-2.07h34l5.12,6.94-3.87,14.45-8.82,6.9h-1.76Zm46.89-28.12H233.77l.85-3.19H222.68l-5.64,21h12l1-3.86h-5.32l2.76-10.3h18.77L241.53,67l-8.76,7H207.59l-5.06-7L210,39.15l9-7h24.83l5.22,7Zm48.4-11.36-2.23,1.76-22,37.81H253.74L252,36.12l-2.87-3.94h15.72l.22,4.56-8.61,0,8,7.05-6.48,11.62,7.79-4.8.47,9.68,5.73-9.93,5.61,4.88-1-11.34,11.58-7.16-8.35,0,2.63-4.56H296Z" transform="translate(0.18 0.21)"/><path id="Path_27" data-name="Path 27" class="cls-3" d="M218.94,32.17l-8.95,7L202.54,67l5.05,7h25.18l8.76-7,4.63-17.54H227.4l-2.76,10.3H230l-1,3.86H217l5.64-21h11.94l-.85,3.18h13.45L249,39.15l-5.22-7Z" transform="translate(0.18 0.21)"/><path id="Path_28" data-name="Path 28" class="cls-3" d="M122.19,32.14H104.7l-.57,2.12,1.46,2-7.32,27.4H86.52l7.31-27.4,2.5-2,.57-2.12H74.4l5.89,4.1L72.08,67l5,6.79h25.08L110.9,67l8.21-30.78,2.51-2Z" transform="translate(0.18 0.21)"/><path id="Path_29" data-name="Path 29" class="cls-3" d="M163.36,32.19H124.73l-3.26,12.39h2.11l2.48-2h8.55l-7.28,27.17-2.5,2-.55,2h17.31l.56-2-1.43-2L148,42.61h8.62l1.45,2h2.11Z" transform="translate(0.18 0.21)"/><path id="Path_30" data-name="Path 30" class="cls-3" d="M201.05,53.58l3.87-14.45-5.12-6.94h-34l-.53,2.07,1.57,2-8.94,33.41-2.53,2.05-.58,2.07h15.47l3.61-13.36h1.63l9.85,13.32,15,0-9.86-13.35h1.77Zm-12.6-3.34H176.62l2-7.65H190.5Z" transform="translate(0.18 0.21)"/><path id="Path_31" data-name="Path 31" class="cls-3" d="M216.09,24.66l-7.88,6.22-4.62-6.22-153.95.05,21.89,14.9L63.84,68.74l9.09,12.4,203.19.12,23.35-40.09,3.08-2.43,3.77-14.08Zm24.32,54.13,1.36-3.25h-.84l.27-.64h2.48l-.27.64h-.85l-1.37,3.25Zm5.43,0h-.72l1.31-3.1h0l-2,3.1h-.61l.62-3.1h0l-1.31,3.1h-.72L244,74.9h1.16l-.6,2.74h0l1.72-2.74h1.16Zm54.32-41.64-2.77,2.18-22.95,39.4H249.15l-.86-18.4-2.52,9.4-11.32,9H182.91l-6.52-8.9-2.45,8.9H148.52L151.13,69l2.53-2,4.51-16.84h-2.7l-1.44-2h-2.52l-5.58,20.71,1.42,2-2.1,7.84H118L120.6,69l2.5-2,5.27-19.52-3.29,2.6h-4.67L115.11,70l-11.26,8.89H74.69L66.85,68.18,74.7,38.43l-16.1-11H202.22l5.49,7.39,9.36-7.38h52.32l.35,6.93,5.14-9.11.86,9.25,4.13-7.07h22.89Z" transform="translate(0.18 0.21)"/><path id="Path_32" data-name="Path 32" class="cls-3" d="M279.81,36.73l8.35,0-11.58,7.16,1,11.35-5.61-4.88-5.73,9.93-.47-9.68-7.79,4.8,6.48-11.62-8-7.06,8.61,0-.23-4.56-15.72,0L252,36.11l1.75,37.8h17.63l22-37.8,2.23-1.76.35-2.19H282.44Z" transform="translate(0.18 0.21)"/><path id="Path_33" data-name="Path 33" class="cls-3" d="M267.87,43.22l-2.45,4.4,4.38-2.7,4.45,3.87-.53-6.3,4.87-3h-5.14L273,34.18l-3,5.26-6.39,0Z" transform="translate(0.18 0.21)"/></g></g></svg>